<svg width="122" height="48" viewBox="0 0 122 48" fill="none" xmlns="http://www.w3.org/2000/svg">
<path d="M67.2891 43.1406C66.1699 43.1406 65.2676 42.792 64.582 42.0947C63.9023 41.3975 63.5625 40.4219 63.5625 39.168V32.0312C63.5625 30.5312 63.8584 29.3828 64.4502 28.5859C65.0479 27.7891 66.0176 27.3906 67.3594 27.3906C68.0918 27.3906 68.7422 27.5254 69.3105 27.7949C69.8848 28.0645 70.3359 28.4688 70.6641 29.0078C70.9922 29.541 71.1562 30.2148 71.1562 31.0293V33.7012H68.0801V31.416C68.0801 30.9531 68.0215 30.6426 67.9043 30.4844C67.7871 30.3203 67.6055 30.2383 67.3594 30.2383C67.0723 30.2383 66.8789 30.3438 66.7793 30.5547C66.6797 30.7598 66.6299 31.0352 66.6299 31.3809V39.124C66.6299 39.5518 66.6914 39.8535 66.8145 40.0293C66.9434 40.2051 67.125 40.293 67.3594 40.293C67.623 40.293 67.8076 40.1846 67.9131 39.9678C68.0244 39.751 68.0801 39.4697 68.0801 39.124V36.3379H71.1914V39.2646C71.1914 40.624 70.8486 41.6113 70.1631 42.2266C69.4775 42.8359 68.5195 43.1406 67.2891 43.1406ZM76.0078 43.1406C73.3828 43.1406 72.0703 41.7783 72.0703 39.0537V33.7627C72.0703 32.5205 72.4189 31.5303 73.1162 30.792C73.8135 30.0479 74.7773 29.6758 76.0078 29.6758C77.2441 29.6758 78.2109 30.0479 78.9082 30.792C79.6055 31.5303 79.9541 32.5205 79.9541 33.7627V39.0537C79.9541 41.7783 78.6387 43.1406 76.0078 43.1406ZM76.0078 40.7148C76.2715 40.7148 76.459 40.6211 76.5703 40.4336C76.6875 40.2402 76.7461 39.9971 76.7461 39.7041V33.2617C76.7461 32.4941 76.5 32.1104 76.0078 32.1104C75.5156 32.1104 75.2695 32.4941 75.2695 33.2617V39.7041C75.2695 39.9971 75.3252 40.2402 75.4365 40.4336C75.5537 40.6211 75.7441 40.7148 76.0078 40.7148ZM81.123 43V29.8164H84.2695V31.4951C84.3867 30.9912 84.6035 30.5635 84.9199 30.2119C85.2422 29.8545 85.6875 29.6758 86.2559 29.6758C87.1699 29.6758 87.832 29.957 88.2422 30.5195C88.6582 31.082 88.8662 31.8525 88.8662 32.8311V43H85.7637V33.1562C85.7637 32.8984 85.7109 32.6611 85.6055 32.4443C85.5 32.2217 85.3184 32.1104 85.0605 32.1104C84.8203 32.1104 84.6416 32.1953 84.5244 32.3652C84.4131 32.5293 84.3428 32.7373 84.3135 32.9893C84.2842 33.2354 84.2695 33.4814 84.2695 33.7275V43H81.123ZM90.1055 43V29.8164H93.252V31.4951C93.3691 30.9912 93.5859 30.5635 93.9023 30.2119C94.2246 29.8545 94.6699 29.6758 95.2383 29.6758C96.1523 29.6758 96.8145 29.957 97.2246 30.5195C97.6406 31.082 97.8486 31.8525 97.8486 32.8311V43H94.7461V33.1562C94.7461 32.8984 94.6934 32.6611 94.5879 32.4443C94.4824 32.2217 94.3008 32.1104 94.043 32.1104C93.8027 32.1104 93.624 32.1953 93.5068 32.3652C93.3955 32.5293 93.3252 32.7373 93.2959 32.9893C93.2666 33.2354 93.252 33.4814 93.252 33.7275V43H90.1055ZM102.779 43.1406C101.842 43.1406 101.095 42.9648 100.538 42.6133C99.9814 42.2617 99.583 41.7549 99.3428 41.0928C99.1025 40.4307 98.9824 39.6338 98.9824 38.7021V33.4023C98.9824 32.1777 99.334 31.252 100.037 30.625C100.74 29.9922 101.707 29.6758 102.938 29.6758C105.469 29.6758 106.734 30.918 106.734 33.4023V34.3604C106.734 35.5205 106.723 36.2998 106.699 36.6982H102.129V39.2471C102.129 39.4814 102.144 39.7129 102.173 39.9414C102.202 40.1641 102.267 40.3486 102.366 40.4951C102.472 40.6416 102.639 40.7148 102.867 40.7148C103.195 40.7148 103.4 40.5742 103.482 40.293C103.564 40.0059 103.605 39.6338 103.605 39.1768V37.9111H106.734V38.6582C106.734 39.6426 106.611 40.4688 106.365 41.1367C106.125 41.7988 105.715 42.2998 105.135 42.6396C104.561 42.9736 103.775 43.1406 102.779 43.1406ZM102.111 35.1338H103.605V33.3584C103.605 32.8838 103.547 32.5439 103.43 32.3389C103.312 32.1279 103.137 32.0225 102.902 32.0225C102.65 32.0225 102.454 32.1221 102.313 32.3213C102.179 32.5205 102.111 32.8662 102.111 33.3584V35.1338ZM111.841 43.1406C110.364 43.1406 109.315 42.7627 108.694 42.0068C108.079 41.251 107.771 40.1406 107.771 38.6758V34.6152C107.771 33.5137 107.889 32.5967 108.123 31.8643C108.357 31.1318 108.768 30.584 109.354 30.2207C109.939 29.8574 110.754 29.6758 111.797 29.6758C112.523 29.6758 113.174 29.8047 113.748 30.0625C114.328 30.3203 114.785 30.6982 115.119 31.1963C115.453 31.6943 115.62 32.3037 115.62 33.0244V35.0371H112.412V33.1914C112.412 32.8867 112.368 32.6318 112.28 32.4268C112.192 32.2158 112.002 32.1104 111.709 32.1104C111.193 32.1104 110.936 32.4766 110.936 33.209V39.5986C110.936 39.8682 110.994 40.1172 111.111 40.3457C111.229 40.5684 111.422 40.6797 111.691 40.6797C111.967 40.6797 112.157 40.5713 112.263 40.3545C112.374 40.1318 112.43 39.874 112.43 39.5811V37.3662H115.62V39.6689C115.62 40.3955 115.456 41.0195 115.128 41.541C114.806 42.0566 114.36 42.4521 113.792 42.7275C113.224 43.0029 112.573 43.1406 111.841 43.1406ZM119.426 43.1406C118.576 43.1406 118.002 42.9619 117.703 42.6045C117.41 42.2412 117.264 41.6875 117.264 40.9434V32.7256H116.376V30.3262H117.264V27.5312H120.322V30.3262H121.21V32.7256H120.322V40.2051C120.322 40.4219 120.357 40.5742 120.428 40.6621C120.498 40.75 120.633 40.7939 120.832 40.7939C120.973 40.7939 121.099 40.7822 121.21 40.7588V42.9033C121.14 42.9268 120.92 42.9707 120.551 43.0352C120.182 43.1055 119.807 43.1406 119.426 43.1406Z" fill="white"/>
<path d="M0.685547 22V6.53125H6.87305V9.5459H3.79688V12.0068H6.71484V14.9863H3.79688V22H0.685547ZM11.5137 22.1406C10.5762 22.1406 9.8291 21.9648 9.27246 21.6133C8.71582 21.2617 8.31738 20.7549 8.07715 20.0928C7.83691 19.4307 7.7168 18.6338 7.7168 17.7021V12.4023C7.7168 11.1777 8.06836 10.252 8.77148 9.625C9.47461 8.99219 10.4414 8.67578 11.6719 8.67578C14.2031 8.67578 15.4688 9.91797 15.4688 12.4023V13.3604C15.4688 14.5205 15.457 15.2998 15.4336 15.6982H10.8633V18.2471C10.8633 18.4814 10.8779 18.7129 10.9072 18.9414C10.9365 19.1641 11.001 19.3486 11.1006 19.4951C11.2061 19.6416 11.373 19.7148 11.6016 19.7148C11.9297 19.7148 12.1348 19.5742 12.2168 19.293C12.2988 19.0059 12.3398 18.6338 12.3398 18.1768V16.9111H15.4688V17.6582C15.4688 18.6426 15.3457 19.4688 15.0996 20.1367C14.8594 20.7988 14.4492 21.2998 13.8691 21.6396C13.2949 21.9736 12.5098 22.1406 11.5137 22.1406ZM10.8457 14.1338H12.3398V12.3584C12.3398 11.8838 12.2812 11.5439 12.1641 11.3389C12.0469 11.1279 11.8711 11.0225 11.6367 11.0225C11.3848 11.0225 11.1885 11.1221 11.0479 11.3213C10.9131 11.5205 10.8457 11.8662 10.8457 12.3584V14.1338ZM19.0107 22.1406C18.2783 22.1406 17.7188 21.9707 17.332 21.6309C16.9512 21.291 16.6904 20.8252 16.5498 20.2334C16.4092 19.6416 16.3389 18.9707 16.3389 18.2207C16.3389 17.418 16.418 16.7617 16.5762 16.252C16.7344 15.7363 17.0039 15.3145 17.3848 14.9863C17.7715 14.6582 18.3018 14.3799 18.9756 14.1514L20.9268 13.4834V12.1299C20.9268 11.4209 20.6953 11.0664 20.2324 11.0664C19.8105 11.0664 19.5996 11.3535 19.5996 11.9277V12.7188H16.541C16.5352 12.6719 16.5322 12.6133 16.5322 12.543C16.5322 12.4668 16.5322 12.3818 16.5322 12.2881C16.5322 10.9756 16.8398 10.0469 17.4551 9.50195C18.0762 8.95117 19.0576 8.67578 20.3994 8.67578C21.1025 8.67578 21.7324 8.80176 22.2891 9.05371C22.8457 9.2998 23.2852 9.66602 23.6074 10.1523C23.9355 10.6387 24.0996 11.2393 24.0996 11.9541V22H20.9707V20.4355C20.8184 20.9863 20.5664 21.4082 20.2148 21.7012C19.8633 21.9941 19.4619 22.1406 19.0107 22.1406ZM20.25 19.6973C20.5078 19.6973 20.6836 19.5889 20.7773 19.3721C20.8711 19.1553 20.918 18.9209 20.918 18.6689V14.9951C20.4844 15.1709 20.1475 15.3936 19.9072 15.6631C19.667 15.9268 19.5469 16.3164 19.5469 16.832V18.5283C19.5469 19.3076 19.7812 19.6973 20.25 19.6973ZM28.0195 22.1406C27.1699 22.1406 26.5957 21.9619 26.2969 21.6045C26.0039 21.2412 25.8574 20.6875 25.8574 19.9434V11.7256H24.9697V9.32617H25.8574V6.53125H28.916V9.32617H29.8037V11.7256H28.916V19.2051C28.916 19.4219 28.9512 19.5742 29.0215 19.6621C29.0918 19.75 29.2266 19.7939 29.4258 19.7939C29.5664 19.7939 29.6924 19.7822 29.8037 19.7588V21.9033C29.7334 21.9268 29.5137 21.9707 29.1445 22.0352C28.7754 22.1055 28.4004 22.1406 28.0195 22.1406Z" fill="white"/>
<path d="M44.4999 25.9999C45.2514 27.1482 46.2102 28.0983 47.3113 28.7858C48.4124 29.4733 49.63 29.8822 50.8815 29.9846C52.133 30.087 53.3891 29.8807 54.5647 29.3795C55.7403 28.8783 56.8078 28.0941 57.6949 27.0799L62.9449 21.0799C64.5387 19.1939 65.4207 16.6679 65.4008 14.0459C65.3808 11.424 64.4606 8.91583 62.8383 7.06175C61.216 5.20766 59.0213 4.15597 56.7271 4.13319C54.4329 4.11041 52.2226 5.11835 50.5724 6.93993L47.5624 10.3599M51.4999 21.9999C50.7483 20.8517 49.7895 19.9016 48.6884 19.2141C47.5873 18.5265 46.3697 18.1177 45.1182 18.0153C43.8667 17.9128 42.6106 18.1192 41.435 18.6204C40.2594 19.1215 39.1919 19.9058 38.3049 20.9199L33.0549 26.9199C31.461 28.806 30.579 31.332 30.599 33.9539C30.6189 36.5759 31.5391 39.084 33.1614 40.9381C34.7838 42.7922 36.9784 43.8439 39.2726 43.8667C41.5668 43.8895 43.7771 42.8815 45.4274 41.0599L48.4199 37.6399" stroke="#036B3F" stroke-width="4" stroke-linecap="round" stroke-linejoin="round"/>
</svg>
